<?xml version="1.0" encoding="UTF-8"?> <svg xmlns="http://www.w3.org/2000/svg" xmlns:xlink="http://www.w3.org/1999/xlink" fill="white" version="1.1" id="Layer_1" x="0px" y="0px" viewBox="0 0 1200 600" style="enable-background:new 0 0 1200 600;" xml:space="preserve"> <g> <g> <path d="M91,364.01V113.03h34.55l46.18,132.89h0.7l45.83-132.89h34.9v250.98h-35.96V211.38h-0.71l-35.6,107.87h-17.98 l-35.25-107.87h-0.71v152.63H91z"></path> <path d="M468.88,185.29h-35.96v-8.11c0-8.22-1.94-15.33-5.82-21.32c-3.88-5.99-10.4-8.99-19.56-8.99c-4.94,0-8.93,0.94-11.99,2.82 c-3.06,1.88-5.52,4.23-7.4,7.05c-1.88,3.06-3.17,6.52-3.88,10.4c-0.7,3.88-1.06,7.93-1.06,12.16c0,4.94,0.18,9.05,0.53,12.34 c0.35,3.29,1.23,6.23,2.64,8.81c1.41,2.59,3.46,4.82,6.17,6.7c2.7,1.89,6.4,3.76,11.1,5.64l27.49,10.93 c7.99,3.06,14.45,6.64,19.39,10.75c4.93,4.11,8.81,8.87,11.63,14.28c2.58,5.64,4.35,12.05,5.29,19.21 c0.94,7.17,1.41,15.33,1.41,24.5c0,10.58-1.06,20.39-3.17,29.43c-2.12,9.05-5.52,16.74-10.22,23.09 c-4.93,6.58-11.4,11.75-19.39,15.51c-7.99,3.76-17.75,5.64-29.26,5.64c-8.7,0-16.8-1.53-24.32-4.58 c-7.52-3.05-13.98-7.28-19.39-12.69c-5.41-5.4-9.69-11.69-12.87-18.86c-3.17-7.17-4.76-14.98-4.76-23.44v-13.39h35.96v11.28 c0,6.58,1.94,12.51,5.82,17.8c3.88,5.29,10.4,7.93,19.56,7.93c6.11,0,10.87-0.88,14.28-2.64c3.4-1.76,6.05-4.28,7.93-7.58 c1.88-3.29,3-7.23,3.35-11.81c0.35-4.58,0.53-9.69,0.53-15.33c0-6.58-0.24-11.98-0.7-16.22c-0.47-4.23-1.41-7.63-2.82-10.22 c-1.65-2.58-3.82-4.7-6.52-6.34c-2.7-1.64-6.29-3.4-10.75-5.29l-25.73-10.58c-15.51-6.34-25.91-14.75-31.2-25.2 c-5.29-10.45-7.93-23.56-7.93-39.3c0-9.4,1.29-18.33,3.88-26.79c2.58-8.46,6.46-15.74,11.63-21.85 c4.94-6.11,11.22-10.98,18.86-14.63c7.63-3.64,16.74-5.46,27.32-5.46c8.93,0,17.1,1.65,24.5,4.94c7.4,3.29,13.8,7.64,19.21,13.04 c10.81,11.28,16.22,24.21,16.22,38.77V185.29z"></path> <path d="M559.11,172.25c0-10.1,1.76-19.04,5.29-26.79c3.53-7.76,8.22-14.22,14.1-19.39c5.64-4.94,12.04-8.69,19.21-11.28 c7.17-2.58,14.39-3.88,21.68-3.88c7.28,0,14.51,1.29,21.68,3.88c7.17,2.59,13.69,6.34,19.56,11.28 c5.64,5.17,10.22,11.63,13.75,19.39c3.52,7.76,5.29,16.69,5.29,26.79v132.54c0,9.87-1.76,18.45-5.29,25.73l22.21,17.98 l-18.33,21.85l-21.15-17.27c-10.81,8.7-23.39,13.04-37.72,13.04c-7.29,0-14.51-1.29-21.68-3.88c-7.17-2.58-13.57-6.46-19.21-11.63 c-5.88-4.93-10.57-11.16-14.1-18.68c-3.52-7.52-5.29-16.57-5.29-27.14V172.25z M595.07,304.79c0,8.7,2.41,15.1,7.23,19.21 c4.81,4.11,10.51,6.17,17.1,6.17c3.29,0,5.87-0.47,7.76-1.41l-16.22-13.04l18.33-21.86l14.45,11.63v-0.7V172.25 c0-8.69-2.41-15.1-7.23-19.21c-4.82-4.11-10.52-6.17-17.1-6.17c-6.58,0-12.28,2.06-17.1,6.17c-4.82,4.11-7.23,10.52-7.23,19.21 V304.79z"></path> <path d="M776.95,364.01V113.03h57.81c42.3,0,63.45,24.56,63.45,73.67c0,14.8-2.29,27.38-6.87,37.72 c-4.58,10.34-12.63,18.68-24.15,25.03l38.78,114.56H867.9l-33.49-107.16h-21.5v107.16H776.95z M812.91,146.87v78.25h20.45 c6.34,0,11.39-0.88,15.16-2.64c3.76-1.76,6.7-4.28,8.81-7.58c1.88-3.29,3.17-7.34,3.88-12.16c0.7-4.81,1.06-10.4,1.06-16.74 c0-6.34-0.35-11.93-1.06-16.74c-0.7-4.81-2.12-8.99-4.23-12.51c-4.47-6.58-12.93-9.87-25.38-9.87H812.91z"></path> <path d="M992.68,364.01V113.03h53.23c20.68,0,36.37,5.64,47.06,16.92c10.69,11.28,16.04,27.26,16.04,47.94v117.38 c0,23.5-5.7,40.84-17.09,51.99c-11.4,11.17-27.79,16.74-49.18,16.74H992.68z M1028.63,146.87v183.3h16.57 c10.1,0,17.27-2.52,21.5-7.58c4.23-5.05,6.34-12.98,6.34-23.79V177.89c0-9.87-2-17.51-5.99-22.91c-4-5.4-11.28-8.11-21.86-8.11 H1028.63z"></path> </g> <g> <path d="M468.91,472.01v3.6c0,1.8-0.34,3.5-1.02,5.11c-0.68,1.61-1.62,3.04-2.82,4.29c-1.2,1.25-2.6,2.25-4.21,2.98 c-1.61,0.74-3.34,1.1-5.19,1.1c-1.58,0-3.19-0.22-4.82-0.65c-1.63-0.44-3.11-1.2-4.41-2.29s-2.38-2.49-3.23-4.21 c-0.85-1.72-1.27-3.91-1.27-6.58v-32.03c0-1.91,0.33-3.68,0.98-5.31c0.65-1.63,1.58-3.05,2.78-4.25c1.2-1.2,2.63-2.14,4.29-2.82 c1.66-0.68,3.5-1.02,5.51-1.02c3.92,0,7.11,1.28,9.56,3.84c1.2,1.25,2.14,2.74,2.82,4.45c0.68,1.71,1.02,3.58,1.02,5.6v3.27h-8.33 v-2.78c0-1.63-0.46-3.05-1.39-4.25c-0.93-1.2-2.18-1.8-3.76-1.8c-2.07,0-3.45,0.64-4.13,1.92c-0.68,1.28-1.02,2.9-1.02,4.86v29.74 c0,1.69,0.37,3.11,1.1,4.25c0.74,1.14,2.06,1.71,3.96,1.71c0.54,0,1.13-0.09,1.76-0.28c0.63-0.19,1.21-0.5,1.76-0.94 c0.49-0.44,0.9-1.04,1.23-1.8c0.33-0.76,0.49-1.71,0.49-2.86v-2.86H468.91z"></path> <path d="M490.39,444.15c0-2.34,0.41-4.41,1.23-6.21c0.82-1.8,1.91-3.29,3.27-4.49c1.31-1.14,2.79-2.02,4.45-2.61 c1.66-0.6,3.34-0.9,5.02-0.9c1.69,0,3.36,0.3,5.02,0.9c1.66,0.6,3.17,1.47,4.53,2.61c1.31,1.2,2.37,2.7,3.19,4.49 c0.82,1.8,1.23,3.87,1.23,6.21v30.72c0,2.45-0.41,4.55-1.23,6.29c-0.82,1.74-1.88,3.18-3.19,4.33c-1.36,1.2-2.87,2.1-4.53,2.7 c-1.66,0.6-3.34,0.9-5.02,0.9c-1.69,0-3.36-0.3-5.02-0.9c-1.66-0.6-3.15-1.5-4.45-2.7c-1.36-1.14-2.45-2.59-3.27-4.33 s-1.23-3.84-1.23-6.29V444.15z M498.73,474.87c0,2.02,0.56,3.5,1.67,4.45c1.12,0.95,2.44,1.43,3.96,1.43 c1.52,0,2.85-0.48,3.96-1.43c1.12-0.95,1.68-2.44,1.68-4.45v-30.72c0-2.02-0.56-3.5-1.68-4.45c-1.12-0.95-2.44-1.43-3.96-1.43 c-1.53,0-2.85,0.48-3.96,1.43c-1.12,0.95-1.67,2.44-1.67,4.45V474.87z"></path> <path d="M567.85,430.42v45.1c0,1.91-0.34,3.66-1.02,5.27c-0.68,1.61-1.65,3.04-2.9,4.29c-1.25,1.25-2.7,2.23-4.33,2.94 c-1.63,0.71-3.38,1.06-5.23,1.06c-1.85,0-3.58-0.36-5.19-1.06c-1.61-0.71-3.04-1.69-4.29-2.94c-1.25-1.25-2.23-2.68-2.94-4.29 c-0.71-1.6-1.06-3.36-1.06-5.27v-45.1h8.33v44.28c0,2.07,0.49,3.6,1.47,4.58s2.21,1.47,3.68,1.47s2.7-0.49,3.68-1.47 c0.98-0.98,1.47-2.5,1.47-4.58v-44.28H567.85z"></path> <path d="M596.36,488.6v-50.33h-9.64v-7.84h27.62v7.84h-9.64v50.33H596.36z"></path> <path d="M660.18,430.42v45.1c0,1.91-0.34,3.66-1.02,5.27c-0.68,1.61-1.65,3.04-2.9,4.29c-1.25,1.25-2.69,2.23-4.33,2.94 s-3.38,1.06-5.23,1.06s-3.58-0.36-5.19-1.06s-3.04-1.69-4.29-2.94c-1.25-1.25-2.23-2.68-2.94-4.29c-0.71-1.6-1.06-3.36-1.06-5.27 v-45.1h8.33v44.28c0,2.07,0.49,3.6,1.47,4.58s2.21,1.47,3.68,1.47s2.7-0.49,3.68-1.47s1.47-2.5,1.47-4.58v-44.28H660.18z"></path> <path d="M683.21,488.6v-58.17h13.4c9.81,0,14.71,5.69,14.71,17.08c0,3.43-0.53,6.35-1.59,8.74c-1.06,2.4-2.93,4.33-5.6,5.8 l8.99,26.55h-8.82l-7.76-24.84h-4.98v24.84H683.21z M691.55,438.27v18.14h4.74c1.47,0,2.64-0.21,3.52-0.61 c0.87-0.41,1.55-0.99,2.04-1.76c0.44-0.76,0.73-1.7,0.9-2.82c0.16-1.11,0.24-2.41,0.24-3.88c0-1.47-0.08-2.77-0.24-3.88 c-0.16-1.11-0.49-2.08-0.98-2.9c-1.04-1.53-3-2.29-5.88-2.29H691.55z"></path> <path d="M733.22,488.6v-58.17h24.84v7.84h-16.51v17.08h14.38v7.84h-14.38v17.08h16.51v8.33H733.22z M743.19,416.29l7.35,11.52 h-5.39l-10.79-11.52H743.19z"></path> </g> </g> </svg> 